<svg id="Flag" xmlns="http://www.w3.org/2000/svg" viewBox="0 0 1990 1050"><defs><style>.cls-1{fill:#00247d;}.cls-2{fill:#fff;}.cls-3{fill:#ce1124;}</style></defs><title>australia flag</title><rect class="cls-1" x="0.38" y="0.8" width="1989.62" height="1049.2"/><rect class="cls-2" y="0.05" width="999.33" height="534.17"/><polygon class="cls-3" points="999.4 213.79 559.38 213.79 559.38 0.08 439.27 0.08 439.27 213.79 0.42 213.79 0.42 320.59 439.27 320.59 439.27 534.21 559.38 534.21 559.38 320.59 999.4 320.59 999.4 213.79"/><polygon class="cls-1" points="0.01 62.25 0.01 178.55 217.98 178.55 0.01 62.25"/><polygon class="cls-1" points="120.26 0.03 117.07 0.17 399.69 151.78 399.69 0.03 120.26 0.03"/><polygon class="cls-3" points="335.44 177.82 0.01 0.06 0.01 41.95 255.51 177.82 335.44 177.82"/><polygon class="cls-3" points="664.15 356.4 999.58 534.16 999.58 492.26 744.08 356.4 664.15 356.4"/><polygon class="cls-1" points="0.01 472.86 0.01 356.56 217.98 356.56 0.01 472.86"/><polygon class="cls-1" points="120.26 535.08 117.07 534.93 399.69 383.33 399.69 535.08 120.26 535.08"/><polygon class="cls-3" points="333.72 356.38 0.23 534.07 78.22 534.15 400.01 363.61 400.01 356.38 333.72 356.38"/><polygon class="cls-1" points="999.59 62.22 999.59 178.53 781.62 178.53 999.59 62.22"/><polygon class="cls-1" points="879.34 0 882.53 0.15 599.9 151.75 599.9 0 879.34 0"/><polygon class="cls-3" points="999.26 0.25 924.25 0.24 600.19 171.98 600.19 178.01 668.75 178.01 999.26 0.25"/><polygon class="cls-1" points="999.59 472.81 999.59 356.51 781.62 356.51 999.59 472.81"/><polygon class="cls-1" points="879.34 535.04 882.53 534.89 599.9 383.29 599.9 535.04 879.34 535.04"/><polygon class="cls-2" points="496.94 628.51 467.86 723.1 377.82 685.95 430.82 771.63 348.75 825.11 444.42 831.05 430.82 934.55 497.88 858.78 564 936.04 550.87 831.55 645.13 823.62 564 771.63 616.99 686.94 527.89 723.59 496.94 628.51"/><polygon class="cls-2" points="1243.98 386.88 1230.54 430.6 1188.91 413.43 1213.41 453.04 1175.48 477.76 1219.7 480.51 1213.41 528.35 1244.41 493.33 1274.98 529.04 1268.91 480.74 1312.48 477.07 1274.98 453.04 1299.48 413.89 1258.29 430.83 1243.98 386.88"/><polygon class="cls-2" points="1494.65 102.88 1481.21 146.61 1439.59 129.44 1464.09 169.04 1426.15 193.77 1470.37 196.51 1464.09 244.36 1495.09 209.33 1525.65 245.04 1519.58 196.74 1563.16 193.08 1525.65 169.04 1550.15 129.9 1508.96 146.84 1494.65 102.88"/><polygon class="cls-2" points="1713.79 316.75 1700.35 360.48 1658.72 343.31 1683.22 382.91 1645.28 407.64 1689.51 410.39 1683.22 458.23 1714.22 423.2 1744.79 458.92 1738.71 410.61 1782.29 406.95 1744.79 382.91 1769.28 343.77 1728.09 360.71 1713.79 316.75"/><polygon class="cls-2" points="1494.65 800.6 1481.21 844.32 1439.59 827.15 1464.09 866.76 1426.15 891.48 1470.37 894.23 1464.09 942.07 1495.09 907.05 1525.65 942.76 1519.58 894.46 1563.16 890.79 1525.65 866.76 1550.15 827.61 1508.96 844.55 1494.65 800.6"/><polygon class="cls-2" points="1595.77 512.41 1607.05 549.07 1643.55 549.07 1614.02 571.72 1625.3 608.38 1595.77 585.72 1566.24 608.38 1577.52 571.72 1547.99 549.07 1584.49 549.07 1595.77 512.41"/></svg>