<svg id="Flag" xmlns="http://www.w3.org/2000/svg" viewBox="0 0 1990 1050"><defs><style>.cls-1{fill:#fff;}.cls-2{fill:#b22234;}.cls-3{fill:#3c3b6e;}</style></defs><title>USA FLAG</title><rect class="cls-1" x="0.03" y="3.93" width="1989.97" height="1042.19"/><rect class="cls-2" x="0.05" y="0.01" width="1988.3" height="82.44"/><rect class="cls-2" x="0.05" y="161.27" width="1988.3" height="82.44"/><rect class="cls-2" x="0.05" y="322.53" width="1988.3" height="82.44"/><rect class="cls-2" x="0.05" y="483.79" width="1988.3" height="82.44"/><rect class="cls-2" x="0.05" y="645.04" width="1988.3" height="82.44"/><rect class="cls-2" x="0.05" y="806.3" width="1988.3" height="82.44"/><rect class="cls-2" x="0.05" y="967.56" width="1988.3" height="82.44"/><rect class="cls-3" width="794.11" height="566.25"/><polygon class="cls-1" points="67.54 21.68 74.97 44.8 99.02 44.8 79.56 59.08 87 82.2 67.54 67.91 48.09 82.2 55.52 59.08 36.06 44.8 60.11 44.8 67.54 21.68"/><polygon class="cls-1" points="132.99 79.78 140.42 102.9 164.47 102.9 145.02 117.19 152.45 140.3 132.99 126.02 113.54 140.3 120.97 117.19 101.51 102.9 125.56 102.9 132.99 79.78"/><polygon class="cls-1" points="132.99 193.31 140.42 216.42 164.47 216.42 145.02 230.71 152.45 253.82 132.99 239.54 113.54 253.82 120.97 230.71 101.51 216.42 125.56 216.42 132.99 193.31"/><polygon class="cls-1" points="132.99 306.83 140.42 329.94 164.47 329.94 145.02 344.23 152.45 367.34 132.99 353.06 113.54 367.34 120.97 344.23 101.51 329.94 125.56 329.94 132.99 306.83"/><polygon class="cls-1" points="132.99 420.35 140.42 443.46 164.47 443.46 145.02 457.75 152.45 480.86 132.99 466.58 113.54 480.86 120.97 457.75 101.51 443.46 125.56 443.46 132.99 420.35"/><polygon class="cls-1" points="265.66 79.78 273.09 102.9 297.14 102.9 277.69 117.19 285.12 140.3 265.66 126.02 246.21 140.3 253.64 117.19 234.18 102.9 258.23 102.9 265.66 79.78"/><polygon class="cls-1" points="265.66 193.31 273.09 216.42 297.14 216.42 277.69 230.71 285.12 253.82 265.66 239.54 246.21 253.82 253.64 230.71 234.18 216.42 258.23 216.42 265.66 193.31"/><polygon class="cls-1" points="265.66 306.83 273.09 329.94 297.14 329.94 277.69 344.23 285.12 367.34 265.66 353.06 246.21 367.34 253.64 344.23 234.18 329.94 258.23 329.94 265.66 306.83"/><polygon class="cls-1" points="265.66 420.35 273.09 443.46 297.14 443.46 277.69 457.75 285.12 480.86 265.66 466.58 246.21 480.86 253.64 457.75 234.18 443.46 258.23 443.46 265.66 420.35"/><polygon class="cls-1" points="398.33 79.78 405.76 102.9 429.81 102.9 410.36 117.19 417.79 140.3 398.33 126.02 378.88 140.3 386.31 117.19 366.85 102.9 390.9 102.9 398.33 79.78"/><polygon class="cls-1" points="398.33 193.31 405.76 216.42 429.81 216.42 410.36 230.71 417.79 253.82 398.33 239.54 378.88 253.82 386.31 230.71 366.85 216.42 390.9 216.42 398.33 193.31"/><polygon class="cls-1" points="398.33 306.83 405.76 329.94 429.81 329.94 410.36 344.23 417.79 367.34 398.33 353.06 378.88 367.34 386.31 344.23 366.85 329.94 390.9 329.94 398.33 306.83"/><polygon class="cls-1" points="398.33 420.35 405.76 443.46 429.81 443.46 410.36 457.75 417.79 480.86 398.33 466.58 378.88 480.86 386.31 457.75 366.85 443.46 390.9 443.46 398.33 420.35"/><polygon class="cls-1" points="531 79.78 538.44 102.9 562.49 102.9 543.03 117.19 550.46 140.3 531 126.02 511.55 140.3 518.98 117.19 499.52 102.9 523.57 102.9 531 79.78"/><polygon class="cls-1" points="531 193.31 538.44 216.42 562.49 216.42 543.03 230.71 550.46 253.82 531 239.54 511.55 253.82 518.98 230.71 499.52 216.42 523.57 216.42 531 193.31"/><polygon class="cls-1" points="531 306.83 538.44 329.94 562.49 329.94 543.03 344.23 550.46 367.34 531 353.06 511.55 367.34 518.98 344.23 499.52 329.94 523.57 329.94 531 306.83"/><polygon class="cls-1" points="531 420.35 538.44 443.46 562.49 443.46 543.03 457.75 550.46 480.86 531 466.58 511.55 480.86 518.98 457.75 499.52 443.46 523.57 443.46 531 420.35"/><polygon class="cls-1" points="663.67 79.78 671.11 102.9 695.15 102.9 675.7 117.19 683.13 140.3 663.67 126.02 644.22 140.3 651.65 117.19 632.2 102.9 656.25 102.9 663.67 79.78"/><polygon class="cls-1" points="663.67 193.31 671.11 216.42 695.15 216.42 675.7 230.71 683.13 253.82 663.67 239.54 644.22 253.82 651.65 230.71 632.2 216.42 656.25 216.42 663.67 193.31"/><polygon class="cls-1" points="663.67 306.83 671.11 329.94 695.15 329.94 675.7 344.23 683.13 367.34 663.67 353.06 644.22 367.34 651.65 344.23 632.2 329.94 656.25 329.94 663.67 306.83"/><polygon class="cls-1" points="663.67 420.35 671.11 443.46 695.15 443.46 675.7 457.75 683.13 480.86 663.67 466.58 644.22 480.86 651.65 457.75 632.2 443.46 656.25 443.46 663.67 420.35"/><polygon class="cls-1" points="67.54 135.21 74.97 158.32 99.02 158.32 79.56 172.6 87 195.72 67.54 181.43 48.09 195.72 55.52 172.6 36.06 158.32 60.11 158.32 67.54 135.21"/><polygon class="cls-1" points="67.54 248.73 74.97 271.84 99.02 271.84 79.56 286.13 87 309.24 67.54 294.95 48.09 309.24 55.52 286.13 36.06 271.84 60.11 271.84 67.54 248.73"/><polygon class="cls-1" points="67.54 362.25 74.97 385.36 99.02 385.36 79.56 399.65 87 422.76 67.54 408.48 48.09 422.76 55.52 399.65 36.06 385.36 60.11 385.36 67.54 362.25"/><polygon class="cls-1" points="67.54 475.77 74.97 498.88 99.02 498.88 79.56 513.17 87 536.28 67.54 522 48.09 536.28 55.52 513.17 36.06 498.88 60.11 498.88 67.54 475.77"/><polygon class="cls-1" points="198.44 21.68 205.87 44.8 229.92 44.8 210.47 59.08 217.9 82.2 198.44 67.91 178.99 82.2 186.42 59.08 166.96 44.8 191.01 44.8 198.44 21.68"/><polygon class="cls-1" points="198.44 135.21 205.87 158.32 229.92 158.32 210.47 172.6 217.9 195.72 198.44 181.43 178.99 195.72 186.42 172.6 166.96 158.32 191.01 158.32 198.44 135.21"/><polygon class="cls-1" points="198.44 248.73 205.87 271.84 229.92 271.84 210.47 286.13 217.9 309.24 198.44 294.95 178.99 309.24 186.42 286.13 166.96 271.84 191.01 271.84 198.44 248.73"/><polygon class="cls-1" points="198.44 362.25 205.87 385.36 229.92 385.36 210.47 399.65 217.9 422.76 198.44 408.48 178.99 422.76 186.42 399.65 166.96 385.36 191.01 385.36 198.44 362.25"/><polygon class="cls-1" points="198.44 475.77 205.87 498.88 229.92 498.88 210.47 513.17 217.9 536.28 198.44 522 178.99 536.28 186.42 513.17 166.96 498.88 191.01 498.88 198.44 475.77"/><polygon class="cls-1" points="332.88 21.68 340.31 44.8 364.36 44.8 344.91 59.08 352.34 82.2 332.88 67.91 313.43 82.2 320.86 59.08 301.4 44.8 325.45 44.8 332.88 21.68"/><polygon class="cls-1" points="332.88 135.21 340.31 158.32 364.36 158.32 344.91 172.6 352.34 195.72 332.88 181.43 313.43 195.72 320.86 172.6 301.4 158.32 325.45 158.32 332.88 135.21"/><polygon class="cls-1" points="332.88 248.73 340.31 271.84 364.36 271.84 344.91 286.13 352.34 309.24 332.88 294.95 313.43 309.24 320.86 286.13 301.4 271.84 325.45 271.84 332.88 248.73"/><polygon class="cls-1" points="332.88 362.25 340.31 385.36 364.36 385.36 344.91 399.65 352.34 422.76 332.88 408.48 313.43 422.76 320.86 399.65 301.4 385.36 325.45 385.36 332.88 362.25"/><polygon class="cls-1" points="332.88 475.77 340.31 498.88 364.36 498.88 344.91 513.17 352.34 536.28 332.88 522 313.43 536.28 320.86 513.17 301.4 498.88 325.45 498.88 332.88 475.77"/><polygon class="cls-1" points="464.67 21.68 472.1 44.8 496.15 44.8 476.69 59.08 484.12 82.2 464.67 67.91 445.21 82.2 452.64 59.08 433.19 44.8 457.24 44.8 464.67 21.68"/><polygon class="cls-1" points="464.67 135.21 472.1 158.32 496.15 158.32 476.69 172.6 484.12 195.72 464.67 181.43 445.21 195.72 452.64 172.6 433.19 158.32 457.24 158.32 464.67 135.21"/><polygon class="cls-1" points="464.67 248.73 472.1 271.84 496.15 271.84 476.69 286.13 484.12 309.24 464.67 294.95 445.21 309.24 452.64 286.13 433.19 271.84 457.24 271.84 464.67 248.73"/><polygon class="cls-1" points="464.67 362.25 472.1 385.36 496.15 385.36 476.69 399.65 484.12 422.76 464.67 408.48 445.21 422.76 452.64 399.65 433.19 385.36 457.24 385.36 464.67 362.25"/><polygon class="cls-1" points="464.67 475.77 472.1 498.88 496.15 498.88 476.69 513.17 484.12 536.28 464.67 522 445.21 536.28 452.64 513.17 433.19 498.88 457.24 498.88 464.67 475.77"/><polygon class="cls-1" points="596.46 21.68 603.89 44.8 627.94 44.8 608.48 59.08 615.91 82.2 596.46 67.91 577 82.2 584.43 59.08 564.98 44.8 589.02 44.8 596.46 21.68"/><polygon class="cls-1" points="596.46 135.21 603.89 158.32 627.94 158.32 608.48 172.6 615.91 195.72 596.46 181.43 577 195.72 584.43 172.6 564.98 158.32 589.02 158.32 596.46 135.21"/><polygon class="cls-1" points="596.46 248.73 603.89 271.84 627.94 271.84 608.48 286.13 615.91 309.24 596.46 294.95 577 309.24 584.43 286.13 564.98 271.84 589.02 271.84 596.46 248.73"/><polygon class="cls-1" points="596.46 362.25 603.89 385.36 627.94 385.36 608.48 399.65 615.91 422.76 596.46 408.48 577 422.76 584.43 399.65 564.98 385.36 589.02 385.36 596.46 362.25"/><polygon class="cls-1" points="596.46 475.77 603.89 498.88 627.94 498.88 608.48 513.17 615.91 536.28 596.46 522 577 536.28 584.43 513.17 564.98 498.88 589.02 498.88 596.46 475.77"/><polygon class="cls-1" points="730.89 21.68 738.33 44.8 762.38 44.8 742.92 59.08 750.35 82.2 730.89 67.91 711.44 82.2 718.87 59.08 699.41 44.8 723.46 44.8 730.89 21.68"/><polygon class="cls-1" points="730.89 135.21 738.33 158.32 762.38 158.32 742.92 172.6 750.35 195.72 730.89 181.43 711.44 195.72 718.87 172.6 699.41 158.32 723.46 158.32 730.89 135.21"/><polygon class="cls-1" points="730.89 248.73 738.33 271.84 762.38 271.84 742.92 286.13 750.35 309.24 730.89 294.95 711.44 309.24 718.87 286.13 699.41 271.84 723.46 271.84 730.89 248.73"/><polygon class="cls-1" points="730.89 362.25 738.33 385.36 762.38 385.36 742.92 399.65 750.35 422.76 730.89 408.48 711.44 422.76 718.87 399.65 699.41 385.36 723.46 385.36 730.89 362.25"/><polygon class="cls-1" points="730.89 475.77 738.33 498.88 762.38 498.88 742.92 513.17 750.35 536.28 730.89 522 711.44 536.28 718.87 513.17 699.41 498.88 723.46 498.88 730.89 475.77"/></svg>